<?xml version="1.0" encoding="utf-8"?>
<!-- Generator: Adobe Illustrator 15.0.0, SVG Export Plug-In . SVG Version: 6.00 Build 0)  -->
<!DOCTYPE svg PUBLIC "-//W3C//DTD SVG 1.1//EN" "http://www.w3.org/Graphics/SVG/1.1/DTD/svg11.dtd">
<svg version="1.1" id="Layer_1" xmlns="http://www.w3.org/2000/svg" xmlns:xlink="http://www.w3.org/1999/xlink" x="0px" y="0px"
	 width="199.23px" height="96.205px" viewBox="0 0 199.23 96.205" enable-background="new 0 0 199.23 96.205" xml:space="preserve">
<g>
	<path fill="#E89324" stroke="#E89324" stroke-miterlimit="10" d="M190.926,82.47c0.276,0.835-0.026,1.688-0.678,1.903l0,0
		c-0.648,0.216-1.4-0.288-1.678-1.123l-14.492-43.797c-0.277-0.836,0.025-1.688,0.676-1.902l0,0c0.651-0.215,1.402,0.289,1.68,1.124
		L190.926,82.47z"/>
	<circle fill="#EB3380" stroke="#FFFFFF" stroke-width="2" stroke-miterlimit="10" cx="171.075" cy="25.51" r="22.503"/>
	<path fill="#F9D1DC" d="M166.609,6.642c-10.869,5.477-18.121,21.26-6.562,30.149c5.452,4.191,14.113,7.021,20.398,3.043
		c6.561-4.15,8.791-14.32,5.545-21.163c-4.805-10.132-24.941-10.264-24.142,3.345c0.392,6.648,7.206,12.875,13.761,8.932
		c4.496-2.703,4.498-9.853-1.792-9.362c-0.825,0.064-3.632,0.613-3.522,1.923c0.09,1.084,1.77,0.964,2.49,1.242
		c2.688,1.035,2.031,2.646-0.998,2.833c-3.734,0.233-6.279-3.854-5.496-7.263c0.766-3.33,4.379-4.827,7.52-4.836
		c8.17-0.021,10.725,11.202,6.756,16.977c-3.95,5.748-10.771,5.512-16.613,2.914c-5.707-2.539-7.682-9.578-6.389-15.328
		c0.609-2.719,1.732-5.14,3.889-6.954c1.264-1.061,6.461-3.045,6.475-4.939c0.004-0.749-0.92-1.385-1.555-1.631"/>
</g>
<g>
	<path fill="#FFFFFF" d="M32.201,48.926c-0.747,0-1.379-0.058-1.954-0.115c-0.689-0.058-1.207-0.287-1.609-0.574
		c-0.345-0.229-0.632-0.518-0.862-0.862l-12.183-16.55v15.745c0,0.402-0.115,0.747-0.288,1.149
		c-0.172,0.288-0.517,0.633-1.149,0.862c-0.058,0-0.058,0-0.058,0c-0.287,0.115-0.632,0.172-1.034,0.229
		c-0.402,0.058-0.919,0.115-1.494,0.115s-1.035-0.058-1.437-0.115c-0.46-0.058-0.805-0.114-1.092-0.229
		c-0.632-0.229-0.977-0.574-1.149-0.862c-0.23-0.402-0.345-0.747-0.345-1.149V8.298c0-0.459,0.115-0.861,0.345-1.206
		c0.287-0.345,0.632-0.633,1.149-0.805C9.33,6.172,9.675,6.114,10.135,6c0.402-0.058,0.862-0.058,1.437-0.058s1.092,0,1.494,0.058
		c0.402,0.114,0.747,0.172,1.034,0.287c0.517,0.172,0.919,0.46,1.149,0.805s0.345,0.747,0.345,1.206V22.09L27.202,7.494
		c0.229-0.288,0.459-0.575,0.747-0.747c0.287-0.23,0.632-0.402,1.034-0.518C29.27,6.114,29.672,6.058,30.075,6
		s0.862-0.058,1.437-0.058c0.632,0,1.149,0,1.552,0.058c0.402,0.114,0.805,0.172,1.092,0.345c0.459,0.172,0.805,0.46,1.034,0.861
		c0.23,0.346,0.288,0.69,0.288,1.092c0,0.46-0.115,0.978-0.345,1.438c-0.172,0.345-0.46,0.747-0.862,1.321c0,0-0.057,0-0.057,0.058
		l-12.47,14.94l13.562,18.044c0,0,0,0.058,0.057,0.058c0.518,0.862,0.69,1.149,0.747,1.379c0.115,0.345,0.172,0.689,0.172,0.978
		c0,0.401-0.057,0.747-0.229,1.092c-0.23,0.402-0.632,0.747-1.149,0.919c-0.288,0.173-0.689,0.229-1.149,0.287
		C33.35,48.868,32.833,48.926,32.201,48.926z"/>
	<path fill="#FFFFFF" d="M50.703,48.926c-1.552,0-3.046-0.229-4.367-0.632c-1.379-0.46-2.529-1.092-3.505-1.896
		c-0.977-0.862-1.724-1.896-2.299-3.161c-0.517-1.206-0.804-2.585-0.804-4.137c0-1.781,0.402-3.333,1.149-4.712
		c0.747-1.322,1.782-2.472,3.161-3.333c1.322-0.862,2.988-1.494,4.827-1.896s3.908-0.575,6.148-0.575h2.414v-0.805
		c0-0.919-0.115-1.781-0.287-2.471c-0.172-0.632-0.402-1.092-0.747-1.494s-0.805-0.689-1.437-0.861
		c-0.632-0.23-1.494-0.345-2.471-0.345c-1.149,0-2.126,0.114-2.988,0.401c-0.919,0.288-1.724,0.575-2.413,0.92
		c-0.69,0.287-1.322,0.632-1.782,0.919c-0.747,0.402-1.322,0.633-1.839,0.633c-0.402,0-0.804-0.115-1.149-0.345
		c-0.345-0.23-0.575-0.518-0.805-0.862c-0.172-0.287-0.287-0.632-0.345-1.092c-0.058-0.345-0.058-0.689-0.058-1.034
		c0-0.632,0.058-1.149,0.115-1.552c0.172-0.574,0.459-1.092,0.919-1.494c0.402-0.402,0.92-0.747,1.724-1.207
		c0.747-0.402,1.609-0.747,2.586-1.092c0.919-0.287,1.954-0.574,3.045-0.747c1.149-0.229,2.299-0.345,3.448-0.345
		c2.126,0,3.965,0.23,5.517,0.747c1.609,0.518,2.931,1.322,3.907,2.299c1.035,1.034,1.782,2.356,2.241,3.851
		c0.402,1.437,0.632,3.103,0.632,4.941v18.676c0,0.689-0.288,1.265-0.805,1.667c-0.287,0.229-0.689,0.402-1.207,0.517
		c-0.402,0.115-0.862,0.115-1.552,0.115c-0.632,0-1.149,0-1.551-0.115c-0.575-0.114-0.977-0.287-1.322-0.574
		c-0.402-0.345-0.632-0.805-0.689-1.321c-0.632,0.459-1.379,0.861-2.069,1.206C54.38,48.523,52.599,48.926,50.703,48.926z
		 M54.495,34.962c-1.322,0-2.414,0.115-3.333,0.345c-0.862,0.173-1.551,0.46-2.126,0.805c-0.459,0.345-0.805,0.689-1.034,1.149
		c-0.23,0.459-0.288,0.977-0.288,1.608c0,1.035,0.288,1.839,0.919,2.414c0.632,0.574,1.609,0.919,2.874,0.919
		c1.092,0,2.068-0.287,3.045-0.861c0.862-0.518,1.839-1.322,2.873-2.414v-3.965H54.495z"/>
	<path fill="#FFFFFF" d="M91.386,48.926c-0.575,0-1.034,0-1.437-0.058c-0.459-0.058-0.805-0.172-1.149-0.287
		c-0.402-0.229-0.747-0.46-0.919-0.747c-0.287-0.345-0.402-0.805-0.402-1.265V30.364c0-1.493-0.115-2.643-0.345-3.505
		c-0.172-0.805-0.517-1.494-0.862-2.068c-0.345-0.518-0.805-0.862-1.322-1.149c-0.575-0.287-1.207-0.402-2.011-0.402
		c-0.977,0-1.954,0.345-2.988,1.092c-1.092,0.747-2.241,1.896-3.448,3.333v18.905c0,0.46-0.115,0.92-0.402,1.265
		c-0.229,0.287-0.517,0.518-0.919,0.747c-0.345,0.115-0.689,0.229-1.149,0.287c-0.402,0.058-0.862,0.058-1.437,0.058
		s-1.034,0-1.437-0.058c-0.459-0.058-0.804-0.172-1.149-0.287c-0.459-0.229-0.804-0.46-0.977-0.862
		c-0.23-0.287-0.345-0.689-0.345-1.149V18.872c0-0.402,0.115-0.747,0.287-1.092s0.517-0.633,0.919-0.862
		c0.345-0.173,0.747-0.287,1.207-0.345c0.345,0,0.747-0.058,1.264-0.058c0.517,0,0.919,0.058,1.264,0.058
		c0.517,0.058,0.862,0.172,1.207,0.345v0.058c0.402,0.172,0.689,0.46,0.862,0.747c0.23,0.345,0.345,0.747,0.345,1.149v0.402
		c0.862-0.747,1.724-1.322,2.643-1.782c1.724-0.919,3.505-1.379,5.287-1.379c2.068,0,3.85,0.345,5.287,1.092
		c1.437,0.689,2.643,1.667,3.562,2.873c0.919,1.207,1.552,2.644,1.896,4.195c0.402,1.494,0.575,3.333,0.575,5.401v16.895
		c0,0.46-0.115,0.92-0.402,1.265c-0.23,0.287-0.517,0.518-0.919,0.747c-0.345,0.115-0.689,0.229-1.207,0.287
		C92.42,48.926,91.96,48.926,91.386,48.926z"/>
	<path fill="#FFFFFF" d="M111.382,48.926c-2.241,0-4.252-0.46-5.861-1.379c-1.609-0.862-2.988-2.126-3.965-3.62
		c-0.977-1.494-1.724-3.219-2.184-5.229c-0.402-1.896-0.632-3.908-0.632-6.034c0-2.471,0.287-4.77,0.804-6.78
		c0.575-2.127,1.437-3.908,2.529-5.402c1.149-1.494,2.528-2.7,4.252-3.562c1.667-0.805,3.563-1.207,5.747-1.207
		c1.839,0,3.563,0.402,5.114,1.207c0.632,0.345,1.264,0.805,1.954,1.265V5.195c0-0.402,0.057-0.747,0.229-1.092
		c0.172-0.287,0.518-0.689,1.207-0.92c0.287-0.114,0.632-0.229,1.034-0.287s0.862-0.058,1.437-0.058c0.575,0,1.035,0,1.437,0.058
		c0.459,0.058,0.804,0.173,1.092,0.287c0.402,0.173,0.804,0.46,1.034,0.805s0.402,0.747,0.402,1.207v41.029
		c0,0.402-0.115,0.747-0.288,1.092c-0.172,0.288-0.517,0.633-1.092,0.862c-0.287,0.115-0.575,0.229-0.977,0.287
		c-0.345,0.058-0.805,0.058-1.264,0.058c-0.518,0-0.919,0-1.265-0.058c-0.402-0.058-0.747-0.114-1.034-0.229
		c-0.459-0.229-0.805-0.46-1.034-0.862c-0.23-0.345-0.345-0.747-0.345-1.149v-0.517c-0.805,0.689-1.667,1.264-2.471,1.724
		C115.462,48.408,113.508,48.926,111.382,48.926z M112.474,22.837c-0.977,0-1.839,0.229-2.528,0.689
		c-0.69,0.518-1.264,1.149-1.724,1.954c-0.517,0.919-0.862,1.896-1.092,3.045c-0.23,1.149-0.402,2.356-0.402,3.621
		c0,1.321,0.115,2.586,0.345,3.85c0.172,1.207,0.518,2.241,0.977,3.161c0.459,0.861,0.977,1.494,1.724,2.011
		c0.632,0.46,1.437,0.689,2.528,0.689c0.517,0,1.034-0.114,1.551-0.229c0.46-0.173,1.035-0.402,1.552-0.747
		c0.575-0.402,1.207-0.92,1.839-1.552c0.632-0.574,1.207-1.207,1.896-2.011V27.204c-1.207-1.437-2.356-2.528-3.391-3.275
		C114.657,23.182,113.623,22.837,112.474,22.837z"/>
	<path fill="#FFFFFF" d="M134.94,13.067c-1.551,0-2.701-0.345-3.39-1.034c-0.747-0.689-1.092-1.781-1.092-3.333
		c0-1.608,0.345-2.758,1.092-3.447s1.839-1.034,3.448-1.034c1.552,0,2.701,0.345,3.391,1.034c0.747,0.689,1.092,1.781,1.092,3.391
		c0,1.551-0.345,2.7-1.092,3.39C137.641,12.723,136.549,13.067,134.94,13.067z M134.998,48.926c-0.575,0-1.034,0-1.437-0.058
		c-0.46-0.058-0.805-0.172-1.149-0.287c-0.402-0.229-0.805-0.46-0.977-0.862c-0.229-0.287-0.345-0.689-0.345-1.149V19.331
		c0-0.345,0.115-0.746,0.288-1.092c0.229-0.345,0.574-0.632,1.034-0.861c0.345-0.115,0.689-0.23,1.149-0.287
		c0.402-0.058,0.862-0.058,1.437-0.058s1.034,0,1.437,0.058c0.46,0.057,0.805,0.172,1.149,0.287c0.402,0.229,0.747,0.46,0.977,0.805
		c0.229,0.345,0.345,0.747,0.345,1.148v27.238c0,0.46-0.115,0.92-0.402,1.265c-0.23,0.287-0.517,0.518-0.919,0.747
		c-0.345,0.115-0.689,0.229-1.149,0.287C136.032,48.926,135.572,48.926,134.998,48.926z"/>
</g>
<g>
	<path fill="#FFFFFF" d="M58.622,88.363c-0.38,0-0.722-0.038-0.987-0.076c-0.266-0.038-0.494-0.076-0.684-0.151
		c-0.342-0.114-0.57-0.304-0.76-0.532c-0.152-0.228-0.228-0.531-0.228-0.798V62.499c0-0.835,0.266-1.48,0.76-1.86
		c0.456-0.38,0.987-0.57,1.519-0.57h5.659c0.569,0,1.177,0.038,1.709,0.076c0.57,0.076,1.215,0.152,1.975,0.342
		c0.797,0.152,1.633,0.494,2.431,0.95c0.835,0.493,1.557,1.101,2.126,1.784c0.57,0.722,1.025,1.558,1.367,2.469
		c0.304,0.912,0.456,1.938,0.456,3.001c0,1.442-0.228,2.772-0.722,3.911c-0.494,1.178-1.177,2.203-2.089,3.039
		c-0.912,0.835-2.013,1.48-3.304,1.937c-1.253,0.418-2.772,0.646-4.481,0.646h-2.089v8.583c0,0.305-0.076,0.57-0.266,0.836
		c-0.152,0.228-0.417,0.38-0.684,0.494c-0.19,0.075-0.417,0.113-0.722,0.151C59.344,88.325,59.002,88.363,58.622,88.363z
		 M63.521,73.552c0.949,0,1.709-0.114,2.317-0.342c0.569-0.229,1.025-0.532,1.405-0.912c0.418-0.418,0.684-0.873,0.874-1.405
		c0.228-0.569,0.342-1.215,0.342-1.898c0-0.912-0.189-1.671-0.494-2.241c-0.342-0.569-0.722-0.987-1.177-1.291
		c-0.456-0.266-0.987-0.456-1.481-0.532c-0.57-0.075-1.14-0.151-1.709-0.151h-2.316v8.773H63.521z"/>
	<path fill="#FFFFFF" d="M83.498,88.363c-1.025,0-2.013-0.152-2.887-0.418c-0.911-0.304-1.671-0.722-2.316-1.253
		c-0.646-0.57-1.14-1.254-1.52-2.089c-0.342-0.798-0.532-1.709-0.532-2.734c0-1.178,0.266-2.203,0.76-3.114
		c0.494-0.874,1.177-1.634,2.089-2.203c0.874-0.569,1.975-0.987,3.19-1.253c1.215-0.267,2.583-0.38,4.063-0.38h1.595v-0.532
		c0-0.607-0.076-1.177-0.19-1.633c-0.114-0.418-0.266-0.722-0.494-0.987s-0.532-0.456-0.95-0.57
		c-0.417-0.151-0.987-0.228-1.633-0.228c-0.76,0-1.405,0.076-1.975,0.266c-0.607,0.19-1.139,0.38-1.595,0.608
		c-0.456,0.189-0.874,0.417-1.177,0.607c-0.494,0.266-0.874,0.418-1.215,0.418c-0.266,0-0.532-0.076-0.759-0.229
		c-0.228-0.151-0.38-0.342-0.532-0.569c-0.114-0.19-0.19-0.418-0.228-0.722c-0.038-0.228-0.038-0.456-0.038-0.684
		c0-0.418,0.038-0.76,0.076-1.025c0.114-0.38,0.304-0.722,0.607-0.987c0.266-0.266,0.608-0.494,1.14-0.798
		c0.494-0.266,1.063-0.494,1.709-0.722c0.607-0.189,1.291-0.38,2.013-0.493c0.76-0.152,1.52-0.229,2.279-0.229
		c1.405,0,2.621,0.152,3.646,0.494c1.063,0.342,1.937,0.873,2.583,1.519c0.684,0.684,1.177,1.558,1.481,2.545
		c0.266,0.949,0.417,2.051,0.417,3.267v12.343c0,0.456-0.19,0.836-0.532,1.102c-0.19,0.152-0.456,0.266-0.797,0.342
		c-0.266,0.076-0.57,0.076-1.025,0.076c-0.418,0-0.76,0-1.025-0.076c-0.38-0.076-0.646-0.189-0.874-0.38
		c-0.266-0.228-0.418-0.531-0.456-0.873c-0.417,0.304-0.911,0.569-1.367,0.797C85.928,88.098,84.75,88.363,83.498,88.363z
		 M86.004,79.135c-0.874,0-1.595,0.075-2.203,0.228c-0.57,0.114-1.025,0.304-1.405,0.531c-0.304,0.229-0.532,0.456-0.684,0.76
		s-0.19,0.646-0.19,1.063c0,0.684,0.19,1.216,0.608,1.596c0.417,0.379,1.063,0.607,1.899,0.607c0.721,0,1.367-0.19,2.013-0.57
		c0.57-0.342,1.215-0.873,1.899-1.595v-2.62H86.004z"/>
	<path fill="#FFFFFF" d="M104.879,88.363c-1.063,0-1.975-0.152-2.735-0.418c-0.835-0.304-1.519-0.797-2.051-1.405
		c-0.532-0.646-0.911-1.405-1.139-2.316c-0.228-0.836-0.304-1.861-0.304-2.963v-9.798h-1.671c-0.532,0-1.025-0.304-1.291-0.798
		c-0.19-0.38-0.304-0.836-0.304-1.52c0-0.304,0.038-0.569,0.076-0.835c0.038-0.229,0.114-0.456,0.19-0.646
		c0.152-0.305,0.342-0.532,0.607-0.646c0.228-0.113,0.456-0.189,0.722-0.189h1.671v-3.456c0-0.266,0.038-0.494,0.19-0.722
		c0.114-0.228,0.342-0.418,0.646-0.569c0.228-0.114,0.494-0.19,0.797-0.229c0.266-0.038,0.57-0.038,0.912-0.038
		c0.38,0,0.684,0,0.949,0.038c0.342,0.038,0.608,0.114,0.798,0.229c0.266,0.151,0.494,0.304,0.607,0.531
		c0.152,0.229,0.266,0.494,0.266,0.76v3.456h3.76c0.266,0,0.532,0.076,0.76,0.189c0.228,0.152,0.417,0.342,0.57,0.608
		c0.076,0.228,0.152,0.455,0.228,0.722c0.038,0.228,0.038,0.493,0.038,0.797c0,0.684-0.114,1.14-0.304,1.52
		c-0.266,0.494-0.76,0.798-1.292,0.798h-3.76v9.305c0,1.367,0.228,2.051,0.417,2.393c0.076,0.152,0.304,0.531,1.215,0.531
		c0.228,0,0.456-0.037,0.608-0.075c0.228-0.038,0.418-0.114,0.57-0.152c0.152-0.076,0.304-0.151,0.417-0.189
		c0.266-0.114,0.494-0.152,0.76-0.152c0.19,0,0.418,0.038,0.607,0.152c0.19,0.113,0.418,0.304,0.57,0.684
		c0.038,0.151,0.114,0.342,0.152,0.531c0.038,0.228,0.038,0.456,0.038,0.76c0,0.494-0.038,0.836-0.114,1.14
		c-0.076,0.417-0.266,0.722-0.494,0.949c-0.19,0.189-0.418,0.38-0.76,0.494c-0.266,0.113-0.57,0.228-0.912,0.304
		c-0.304,0.075-0.607,0.113-0.949,0.151S105.221,88.363,104.879,88.363z"/>
	<path fill="#FFFFFF" d="M120.943,88.363c-1.063,0-1.975-0.152-2.734-0.418c-0.836-0.304-1.52-0.797-2.051-1.405
		c-0.532-0.646-0.911-1.405-1.139-2.316c-0.228-0.836-0.304-1.861-0.304-2.963v-9.798h-1.671c-0.532,0-1.025-0.304-1.291-0.798
		c-0.19-0.38-0.304-0.836-0.304-1.52c0-0.304,0.038-0.569,0.076-0.835c0.038-0.229,0.114-0.456,0.19-0.646
		c0.152-0.305,0.342-0.532,0.607-0.646c0.228-0.113,0.456-0.189,0.722-0.189h1.671v-3.456c0-0.266,0.038-0.494,0.19-0.722
		c0.114-0.228,0.342-0.418,0.646-0.569c0.228-0.114,0.494-0.19,0.797-0.229c0.266-0.038,0.57-0.038,0.912-0.038
		c0.38,0,0.684,0,0.95,0.038c0.342,0.038,0.607,0.114,0.797,0.229c0.266,0.151,0.494,0.304,0.607,0.531
		c0.152,0.229,0.266,0.494,0.266,0.76v3.456h3.76c0.266,0,0.532,0.076,0.76,0.189c0.228,0.152,0.417,0.342,0.57,0.608
		c0.076,0.228,0.152,0.455,0.228,0.722c0.038,0.228,0.038,0.493,0.038,0.797c0,0.684-0.114,1.14-0.304,1.52
		c-0.266,0.494-0.76,0.798-1.292,0.798h-3.76v9.305c0,1.367,0.228,2.051,0.417,2.393c0.076,0.152,0.304,0.531,1.215,0.531
		c0.228,0,0.456-0.037,0.608-0.075c0.228-0.038,0.418-0.114,0.57-0.152c0.152-0.076,0.304-0.151,0.417-0.189
		c0.266-0.114,0.494-0.152,0.76-0.152c0.19,0,0.417,0.038,0.607,0.152c0.19,0.113,0.418,0.304,0.57,0.684
		c0.038,0.151,0.114,0.342,0.152,0.531c0.038,0.228,0.038,0.456,0.038,0.76c0,0.494-0.038,0.836-0.114,1.14
		c-0.076,0.417-0.266,0.722-0.494,0.949c-0.19,0.189-0.418,0.38-0.76,0.494c-0.266,0.113-0.57,0.228-0.912,0.304
		c-0.304,0.075-0.607,0.113-0.949,0.151S121.285,88.363,120.943,88.363z"/>
	<path fill="#FFFFFF" d="M137.576,88.363c-1.595,0-3.038-0.228-4.253-0.684c-1.292-0.456-2.354-1.178-3.228-2.127
		c-0.874-0.911-1.52-2.089-1.937-3.456c-0.418-1.329-0.646-2.887-0.646-4.634c0-1.633,0.228-3.152,0.646-4.52
		c0.456-1.367,1.101-2.544,1.937-3.494c0.874-0.987,1.899-1.746,3.114-2.278c1.215-0.494,2.544-0.76,3.988-0.76
		c1.595,0,2.924,0.266,4.063,0.76c1.14,0.532,2.089,1.253,2.811,2.127c0.722,0.873,1.292,1.898,1.633,3.076
		c0.304,1.14,0.494,2.354,0.494,3.608v0.607c0,0.798-0.266,1.443-0.722,1.823s-0.95,0.569-1.519,0.569h-11.128
		c0.038,0.569,0.152,1.102,0.266,1.595c0.152,0.684,0.456,1.292,0.835,1.747c0.38,0.456,0.874,0.836,1.52,1.063
		c0.646,0.267,1.443,0.418,2.431,0.418c0.835,0,1.557-0.076,2.165-0.189c0.646-0.152,1.177-0.304,1.633-0.456
		c0.494-0.152,0.874-0.304,1.177-0.456c0.456-0.189,0.797-0.266,1.102-0.266c0.266,0,0.494,0.076,0.722,0.19
		c0.228,0.151,0.417,0.379,0.532,0.646c0.076,0.151,0.152,0.38,0.152,0.646c0.038,0.189,0.038,0.455,0.038,0.722
		c0,0.189,0,0.38,0,0.569c-0.038,0.152-0.038,0.266-0.076,0.418c-0.038,0.189-0.114,0.38-0.19,0.569
		c-0.114,0.114-0.228,0.266-0.342,0.418c-0.152,0.114-0.342,0.266-0.912,0.532c-0.417,0.189-0.949,0.379-1.595,0.569
		c-0.607,0.151-1.291,0.304-2.089,0.456C139.361,88.287,138.488,88.363,137.576,88.363z M140.957,74.69
		c-0.076-1.101-0.418-2.013-0.95-2.658c-0.646-0.798-1.633-1.178-2.962-1.178c-0.684,0-1.292,0.152-1.785,0.38
		c-0.532,0.267-0.95,0.608-1.292,0.987c-0.342,0.456-0.607,0.95-0.835,1.52c-0.076,0.304-0.152,0.607-0.228,0.949H140.957z"/>
	<path fill="#FFFFFF" d="M151.058,88.363c-0.38,0-0.684,0-0.95-0.038c-0.304-0.038-0.532-0.114-0.76-0.189
		c-0.304-0.114-0.532-0.304-0.646-0.532c-0.152-0.228-0.228-0.493-0.228-0.76V68.5c0-0.266,0.076-0.493,0.19-0.684
		c0.114-0.266,0.342-0.456,0.608-0.607c0.228-0.114,0.494-0.19,0.797-0.19c0.228-0.037,0.494-0.037,0.835-0.037s0.608,0,0.836,0.037
		c0.342,0,0.569,0.076,0.797,0.229c0.266,0.113,0.456,0.304,0.57,0.493c0.152,0.229,0.228,0.494,0.228,0.76v0.114
		c0.418-0.456,0.836-0.798,1.215-1.063c0.494-0.342,0.988-0.569,1.481-0.684c0.456-0.114,0.912-0.19,1.405-0.19
		c0.19,0,0.417,0,0.684,0.038c0.228,0.038,0.532,0.076,0.797,0.114c0.266,0.076,0.532,0.152,0.76,0.228
		c0.304,0.114,0.532,0.229,0.722,0.38c0.19,0.152,0.304,0.304,0.417,0.494c0.038,0.151,0.076,0.266,0.114,0.418
		c0.038,0.151,0.038,0.342,0.076,0.569c0,0.228,0,0.456,0,0.798c0,0.304,0,0.569-0.038,0.797c0,0.305-0.038,0.532-0.114,0.722
		c-0.076,0.267-0.228,0.456-0.38,0.608c-0.152,0.189-0.456,0.379-0.874,0.379c-0.228,0-0.494-0.075-0.759-0.151
		c-0.114-0.076-0.266-0.114-0.456-0.19c-0.19-0.037-0.379-0.075-0.607-0.151c-0.152-0.038-0.38-0.038-0.57-0.038
		c-0.228,0-0.456,0.038-0.646,0.114c-0.266,0.113-0.532,0.304-0.798,0.531c-0.304,0.266-0.646,0.646-1.025,1.102
		c-0.304,0.456-0.684,0.987-1.101,1.595v11.812c0,0.305-0.076,0.57-0.266,0.798c-0.152,0.19-0.342,0.38-0.607,0.494
		c-0.228,0.075-0.456,0.151-0.76,0.189C151.741,88.363,151.437,88.363,151.058,88.363z"/>
	<path fill="#FFFFFF" d="M178.288,88.363c-0.38,0-0.684,0-0.949-0.038c-0.304-0.038-0.532-0.114-0.76-0.189
		c-0.266-0.152-0.494-0.304-0.608-0.494c-0.19-0.228-0.266-0.531-0.266-0.836v-10.71c0-0.987-0.076-1.747-0.228-2.316
		c-0.114-0.531-0.342-0.987-0.569-1.367c-0.228-0.342-0.532-0.569-0.874-0.76c-0.38-0.189-0.798-0.266-1.33-0.266
		c-0.646,0-1.291,0.228-1.975,0.722c-0.722,0.493-1.481,1.253-2.279,2.202v12.495c0,0.305-0.076,0.608-0.266,0.836
		c-0.152,0.19-0.342,0.342-0.607,0.494c-0.228,0.075-0.456,0.151-0.76,0.189c-0.266,0.038-0.57,0.038-0.949,0.038
		c-0.38,0-0.684,0-0.95-0.038c-0.304-0.038-0.532-0.114-0.76-0.189c-0.304-0.152-0.532-0.304-0.646-0.57
		c-0.152-0.189-0.228-0.455-0.228-0.76V68.5c0-0.266,0.076-0.493,0.19-0.722c0.114-0.228,0.342-0.418,0.608-0.569
		c0.228-0.114,0.494-0.19,0.797-0.228c0.228,0,0.494-0.038,0.835-0.038s0.608,0.038,0.836,0.038
		c0.342,0.037,0.569,0.113,0.797,0.228v0.038c0.266,0.113,0.456,0.304,0.57,0.493c0.152,0.229,0.228,0.494,0.228,0.76v0.266
		c0.57-0.493,1.14-0.873,1.747-1.177c1.14-0.607,2.317-0.912,3.494-0.912c1.367,0,2.545,0.229,3.494,0.722
		c0.95,0.456,1.747,1.102,2.355,1.899c0.607,0.798,1.025,1.747,1.253,2.772c0.266,0.987,0.38,2.203,0.38,3.57v11.165
		c0,0.305-0.076,0.608-0.266,0.836c-0.152,0.19-0.342,0.342-0.608,0.494c-0.228,0.075-0.456,0.151-0.797,0.189
		C178.971,88.363,178.667,88.363,178.288,88.363z"/>
	<path fill="#FFFFFF" d="M189.832,88.363c-0.684,0-1.367-0.038-2.013-0.152c-0.646-0.113-1.215-0.266-1.709-0.455
		c-0.532-0.152-0.987-0.342-1.329-0.532c-0.418-0.228-0.684-0.418-0.912-0.607c-0.266-0.228-0.456-0.569-0.569-0.987
		c-0.114-0.342-0.152-0.722-0.152-1.254c0-0.304,0-0.531,0.038-0.759c0.038-0.267,0.114-0.456,0.152-0.608
		c0.152-0.379,0.38-0.569,0.57-0.684c0.19-0.151,0.456-0.228,0.722-0.228c0.342,0,0.684,0.114,1.139,0.418
		c0.266,0.151,0.608,0.342,1.025,0.569c0.38,0.19,0.836,0.342,1.368,0.532c0.494,0.151,1.063,0.228,1.747,0.228
		c0.494,0,0.912-0.038,1.292-0.152c0.38-0.113,0.684-0.228,0.912-0.417c0.228-0.152,0.38-0.342,0.494-0.57
		c0.114-0.228,0.19-0.531,0.19-0.873c0-0.304-0.076-0.57-0.228-0.76c-0.19-0.266-0.456-0.494-0.797-0.722
		c-0.38-0.228-0.798-0.456-1.292-0.646c-0.532-0.19-1.101-0.418-1.709-0.646c-0.607-0.229-1.177-0.532-1.785-0.836
		c-0.607-0.304-1.177-0.722-1.671-1.215c-0.494-0.494-0.912-1.102-1.253-1.785c-0.304-0.684-0.456-1.52-0.456-2.469
		c0-0.836,0.152-1.633,0.494-2.431c0.304-0.76,0.835-1.443,1.481-2.051c0.646-0.569,1.443-1.025,2.393-1.367
		c0.911-0.342,2.013-0.494,3.228-0.494c0.532,0,1.063,0.038,1.595,0.152c0.532,0.076,1.025,0.189,1.443,0.342
		c0.456,0.113,0.835,0.266,1.177,0.455c0.304,0.152,0.57,0.305,0.759,0.456c0.228,0.19,0.38,0.38,0.494,0.532
		c0.114,0.189,0.189,0.38,0.228,0.569c0,0.114,0.038,0.266,0.076,0.418c0,0.189,0.038,0.418,0.038,0.684s-0.038,0.493-0.038,0.722
		c-0.038,0.266-0.114,0.455-0.19,0.646c0,0,0,0,0,0.038c-0.114,0.228-0.266,0.455-0.494,0.607c-0.19,0.152-0.456,0.228-0.722,0.228
		c-0.304,0-0.646-0.113-1.025-0.38c-0.19-0.113-0.456-0.266-0.798-0.417c-0.304-0.152-0.721-0.304-1.177-0.456
		c-0.38-0.114-0.874-0.152-1.405-0.152c-0.494,0-0.911,0.038-1.253,0.152c-0.304,0.076-0.569,0.189-0.759,0.342
		c-0.152,0.152-0.304,0.342-0.38,0.531c-0.076,0.229-0.114,0.456-0.114,0.685c0,0.342,0.038,0.607,0.19,0.797
		c0.228,0.266,0.494,0.494,0.835,0.722c0.38,0.228,0.835,0.456,1.329,0.646c0.532,0.229,1.102,0.456,1.709,0.684
		c0.608,0.229,1.178,0.494,1.785,0.798c0.608,0.342,1.215,0.722,1.709,1.178c0.494,0.493,0.912,1.101,1.253,1.747
		c0.304,0.721,0.456,1.519,0.456,2.431c0,1.063-0.19,2.051-0.607,2.886c-0.38,0.874-0.987,1.596-1.709,2.203
		c-0.76,0.569-1.595,0.987-2.621,1.291C192.035,88.211,190.971,88.363,189.832,88.363z"/>
</g>
<g>
	<path fill="#FFFFFF" d="M14.049,67.364c4.117-5.133,10.857-7.838,16.405-3.294c1.589-2.078,3.814-4.946,5.811-6.128
		c2.522-1.493,4.314,0.544,3.562,3.104c-0.135,0.457-0.337,0.927-0.582,1.389c0.367-0.142,0.74-0.265,1.112-0.361
		c1.531-0.4,3.071-0.37,4.281,0.5c1.115,0.802,0.753,2.399,0.306,3.471c-0.67,1.607-1.925,3.232-3.257,4.339
		c1.192,0.01,2.168,0.299,2.807,1.868c0.465,1.141-0.022,2.074-1.1,2.627c-1.862,0.957-5.576,0.847-7.62,0.708
		c-0.129,1.926-0.734,3.738-1.673,5.334c-3.473,5.896-10.791,8.223-16.71,4.383c-1.336,3.021-2.72,7.714-6.762,7.543
		c-2.927-0.125-2.857-2.842-2.085-4.983c0.151-0.421,0.336-0.854,0.547-1.293c-2.284,1.834-4.555,3.212-7.11,1.3
		c-1.94-1.451-1.778-3.033-0.636-4.561c0.412-0.551,0.97-1.086,1.596-1.593c-2.653-0.134-4.38-4.065-1.297-6.313
		c3.426-2.496,7.414-2.004,9.853-1.65C11.657,71.558,12.454,69.352,14.049,67.364L14.049,67.364z M31.696,65.241
		c2.208,2.37,3.8,5.419,4.071,8.644c1.663,0.12,5.347,0.258,6.853-0.519c1.152-0.591-0.639-1.318-1.856-1.254
		c-0.832,0.043-1.751,0.092-2.745-0.179c-0.963-0.262-0.752-1.688,0.235-1.674c2.045-0.192,4.346-3.011,5.122-4.872
		c0.872-2.083-0.703-2.165-2.593-1.673c-1.16,0.301-2.338,0.908-3.28,1.531c-1.764,1.165-2.612,0.083-1.416-1.266
		c0.307-0.345,0.637-0.753,0.946-1.193c0.506-0.719,0.954-1.51,1.164-2.226c0.383-1.3-0.229-1.986-1.422-1.114
		C35.337,60.502,33.173,63.314,31.696,65.241L31.696,65.241z M29.764,65.723c-4.799-4.354-10.731-1.857-14.384,2.701
		c-4.918,6.131-1.007,16.068,7.182,16.998c3.925,0.446,7.864-1.607,10.079-5.366C35.489,75.214,33.877,69.461,29.764,65.723
		L29.764,65.723z M15.999,84.259c-2.565-2.218-4.242-5.413-4.5-8.788c-2.428-0.654-7.104,0.03-8.854,1.305
		c-1.966,1.435-0.56,3.778,1.539,2.999c0.505-0.188,1.06-0.48,1.604-0.768c2.618-1.415,5.858-0.857,2.842,1.013
		c-0.278,0.174-0.59,0.359-0.924,0.56c-1.683,1.009-3.976,2.384-4.997,3.748c-0.549,0.733-0.63,1.491,0.288,2.179
		c1.853,1.385,3.896-0.313,5.997-2.06c0.366-0.305,0.732-0.61,1.103-0.904c2.409-1.916,3.939-1.689,1.734,1.651
		c-0.7,1.058-1.312,2.205-1.691,3.252c-0.332,0.92-0.921,2.641,0.559,2.705C13.582,91.271,14.97,86.507,15.999,84.259L15.999,84.259
		z"/>
	<path fill-rule="evenodd" clip-rule="evenodd" fill="#C3D32E" d="M15.836,71.132c-5.904,13.503,12.817,15.624,16.352,4.56
		C34.993,66.911,19.743,62.194,15.836,71.132L15.836,71.132z"/>
	<path fill-rule="evenodd" clip-rule="evenodd" fill="#A6B438" d="M20.138,82.55c4.429,1.021,10.237-1.185,12.05-6.858
		c2.104-6.589-5.954-10.887-11.76-8.848c4.081,0.292,7.147,4.316,6.557,8.328C26.415,79.058,23.526,81.526,20.138,82.55
		L20.138,82.55z"/>
</g>
</svg>
